<mxfile host="app.diagrams.net" modified="2020-07-20T14:19:08.601Z" agent="5.0 (Windows NT 10.0; Win64; x64) AppleWebKit/537.36 (KHTML, like Gecko) Chrome/84.0.4147.89 Safari/537.36" etag="e6YXdzlj4sDKYeNh5JoY" version="13.4.9" type="github">
  <diagram id="C5RBs43oDa-KdzZeNtuy" name="Page-1">
    <mxGraphModel dx="868" dy="482" grid="1" gridSize="10" guides="1" tooltips="1" connect="1" arrows="1" fold="1" page="1" pageScale="1" pageWidth="827" pageHeight="1169" math="0" shadow="0">
      <root>
        <mxCell id="WIyWlLk6GJQsqaUBKTNV-0" />
        <mxCell id="WIyWlLk6GJQsqaUBKTNV-1" parent="WIyWlLk6GJQsqaUBKTNV-0" />
        <mxCell id="2Z-z2ruaJ7jG-u0PLfdU-9" style="edgeStyle=orthogonalEdgeStyle;rounded=0;orthogonalLoop=1;jettySize=auto;html=1;entryX=0.5;entryY=0;entryDx=0;entryDy=0;" edge="1" parent="WIyWlLk6GJQsqaUBKTNV-1" source="WIyWlLk6GJQsqaUBKTNV-3" target="2Z-z2ruaJ7jG-u0PLfdU-8">
          <mxGeometry relative="1" as="geometry" />
        </mxCell>
        <mxCell id="WIyWlLk6GJQsqaUBKTNV-3" value="User Story 1" style="rounded=1;whiteSpace=wrap;html=1;fontSize=12;glass=0;strokeWidth=1;shadow=0;" parent="WIyWlLk6GJQsqaUBKTNV-1" vertex="1">
          <mxGeometry x="300" y="30" width="120" height="40" as="geometry" />
        </mxCell>
        <mxCell id="WIyWlLk6GJQsqaUBKTNV-8" value="No" style="rounded=0;html=1;jettySize=auto;orthogonalLoop=1;fontSize=11;endArrow=block;endFill=0;endSize=8;strokeWidth=1;shadow=0;labelBackgroundColor=none;edgeStyle=orthogonalEdgeStyle;" parent="WIyWlLk6GJQsqaUBKTNV-1" target="WIyWlLk6GJQsqaUBKTNV-11" edge="1">
          <mxGeometry x="0.3333" y="20" relative="1" as="geometry">
            <mxPoint as="offset" />
            <mxPoint x="220" y="370" as="sourcePoint" />
          </mxGeometry>
        </mxCell>
        <mxCell id="WIyWlLk6GJQsqaUBKTNV-9" value="Yes" style="edgeStyle=orthogonalEdgeStyle;rounded=0;html=1;jettySize=auto;orthogonalLoop=1;fontSize=11;endArrow=block;endFill=0;endSize=8;strokeWidth=1;shadow=0;labelBackgroundColor=none;" parent="WIyWlLk6GJQsqaUBKTNV-1" target="WIyWlLk6GJQsqaUBKTNV-12" edge="1">
          <mxGeometry y="10" relative="1" as="geometry">
            <mxPoint as="offset" />
            <mxPoint x="270" y="330" as="sourcePoint" />
          </mxGeometry>
        </mxCell>
        <mxCell id="2Z-z2ruaJ7jG-u0PLfdU-0" value="Search restaurants by name" style="rounded=1;whiteSpace=wrap;html=1;" vertex="1" parent="WIyWlLk6GJQsqaUBKTNV-1">
          <mxGeometry x="130" y="200" width="120" height="50" as="geometry" />
        </mxCell>
        <mxCell id="2Z-z2ruaJ7jG-u0PLfdU-3" value="search rest. by location" style="rounded=1;whiteSpace=wrap;html=1;" vertex="1" parent="WIyWlLk6GJQsqaUBKTNV-1">
          <mxGeometry x="300" y="200" width="120" height="50" as="geometry" />
        </mxCell>
        <mxCell id="2Z-z2ruaJ7jG-u0PLfdU-6" value="no login/ signup" style="rounded=1;whiteSpace=wrap;html=1;" vertex="1" parent="WIyWlLk6GJQsqaUBKTNV-1">
          <mxGeometry x="480" y="200" width="120" height="50" as="geometry" />
        </mxCell>
        <mxCell id="2Z-z2ruaJ7jG-u0PLfdU-10" style="edgeStyle=orthogonalEdgeStyle;rounded=0;orthogonalLoop=1;jettySize=auto;html=1;" edge="1" parent="WIyWlLk6GJQsqaUBKTNV-1" source="2Z-z2ruaJ7jG-u0PLfdU-8">
          <mxGeometry relative="1" as="geometry">
            <mxPoint x="190" y="190" as="targetPoint" />
          </mxGeometry>
        </mxCell>
        <mxCell id="2Z-z2ruaJ7jG-u0PLfdU-11" style="edgeStyle=orthogonalEdgeStyle;rounded=0;orthogonalLoop=1;jettySize=auto;html=1;entryX=0.5;entryY=0;entryDx=0;entryDy=0;" edge="1" parent="WIyWlLk6GJQsqaUBKTNV-1" source="2Z-z2ruaJ7jG-u0PLfdU-8" target="2Z-z2ruaJ7jG-u0PLfdU-3">
          <mxGeometry relative="1" as="geometry" />
        </mxCell>
        <mxCell id="2Z-z2ruaJ7jG-u0PLfdU-12" style="edgeStyle=orthogonalEdgeStyle;rounded=0;orthogonalLoop=1;jettySize=auto;html=1;entryX=0.7;entryY=0.04;entryDx=0;entryDy=0;entryPerimeter=0;" edge="1" parent="WIyWlLk6GJQsqaUBKTNV-1" source="2Z-z2ruaJ7jG-u0PLfdU-8" target="2Z-z2ruaJ7jG-u0PLfdU-6">
          <mxGeometry relative="1" as="geometry" />
        </mxCell>
        <mxCell id="2Z-z2ruaJ7jG-u0PLfdU-8" value="Landing page" style="shape=process;whiteSpace=wrap;html=1;backgroundOutline=1;" vertex="1" parent="WIyWlLk6GJQsqaUBKTNV-1">
          <mxGeometry x="300" y="110" width="120" height="60" as="geometry" />
        </mxCell>
        <mxCell id="2Z-z2ruaJ7jG-u0PLfdU-17" value="" style="edgeStyle=orthogonalEdgeStyle;rounded=0;orthogonalLoop=1;jettySize=auto;html=1;" edge="1" parent="WIyWlLk6GJQsqaUBKTNV-1" source="2Z-z2ruaJ7jG-u0PLfdU-13" target="2Z-z2ruaJ7jG-u0PLfdU-16">
          <mxGeometry relative="1" as="geometry" />
        </mxCell>
        <mxCell id="2Z-z2ruaJ7jG-u0PLfdU-13" value="User Story 2" style="rounded=1;whiteSpace=wrap;html=1;" vertex="1" parent="WIyWlLk6GJQsqaUBKTNV-1">
          <mxGeometry x="300" y="280" width="120" height="40" as="geometry" />
        </mxCell>
        <mxCell id="2Z-z2ruaJ7jG-u0PLfdU-14" value="Filters Options" style="rounded=1;whiteSpace=wrap;html=1;" vertex="1" parent="WIyWlLk6GJQsqaUBKTNV-1">
          <mxGeometry x="500" y="430" width="120" height="60" as="geometry" />
        </mxCell>
        <mxCell id="2Z-z2ruaJ7jG-u0PLfdU-15" value="Display list of restaurants" style="rounded=1;whiteSpace=wrap;html=1;" vertex="1" parent="WIyWlLk6GJQsqaUBKTNV-1">
          <mxGeometry x="90" y="430" width="120" height="60" as="geometry" />
        </mxCell>
        <mxCell id="2Z-z2ruaJ7jG-u0PLfdU-20" style="edgeStyle=orthogonalEdgeStyle;rounded=0;orthogonalLoop=1;jettySize=auto;html=1;entryX=0.5;entryY=0;entryDx=0;entryDy=0;" edge="1" parent="WIyWlLk6GJQsqaUBKTNV-1" source="2Z-z2ruaJ7jG-u0PLfdU-16" target="2Z-z2ruaJ7jG-u0PLfdU-15">
          <mxGeometry relative="1" as="geometry" />
        </mxCell>
        <mxCell id="2Z-z2ruaJ7jG-u0PLfdU-21" style="edgeStyle=orthogonalEdgeStyle;rounded=0;orthogonalLoop=1;jettySize=auto;html=1;entryX=0.5;entryY=0;entryDx=0;entryDy=0;" edge="1" parent="WIyWlLk6GJQsqaUBKTNV-1" source="2Z-z2ruaJ7jG-u0PLfdU-16" target="2Z-z2ruaJ7jG-u0PLfdU-14">
          <mxGeometry relative="1" as="geometry" />
        </mxCell>
        <mxCell id="2Z-z2ruaJ7jG-u0PLfdU-16" value="Page divides into 2 sections" style="shape=process;whiteSpace=wrap;html=1;backgroundOutline=1;" vertex="1" parent="WIyWlLk6GJQsqaUBKTNV-1">
          <mxGeometry x="300" y="350" width="120" height="60" as="geometry" />
        </mxCell>
        <mxCell id="2Z-z2ruaJ7jG-u0PLfdU-28" style="edgeStyle=orthogonalEdgeStyle;rounded=0;orthogonalLoop=1;jettySize=auto;html=1;entryX=0.5;entryY=0;entryDx=0;entryDy=0;" edge="1" parent="WIyWlLk6GJQsqaUBKTNV-1" source="2Z-z2ruaJ7jG-u0PLfdU-22" target="2Z-z2ruaJ7jG-u0PLfdU-25">
          <mxGeometry relative="1" as="geometry" />
        </mxCell>
        <mxCell id="2Z-z2ruaJ7jG-u0PLfdU-22" value="User Story 3" style="rounded=1;whiteSpace=wrap;html=1;" vertex="1" parent="WIyWlLk6GJQsqaUBKTNV-1">
          <mxGeometry x="300" y="510" width="120" height="60" as="geometry" />
        </mxCell>
        <mxCell id="2Z-z2ruaJ7jG-u0PLfdU-23" value="Cuisine selection(food)" style="rounded=1;whiteSpace=wrap;html=1;" vertex="1" parent="WIyWlLk6GJQsqaUBKTNV-1">
          <mxGeometry x="260" y="720" width="120" height="60" as="geometry" />
        </mxCell>
        <mxCell id="2Z-z2ruaJ7jG-u0PLfdU-24" value="Rest. details" style="rounded=1;whiteSpace=wrap;html=1;" vertex="1" parent="WIyWlLk6GJQsqaUBKTNV-1">
          <mxGeometry x="90" y="720" width="120" height="60" as="geometry" />
        </mxCell>
        <mxCell id="2Z-z2ruaJ7jG-u0PLfdU-30" style="edgeStyle=orthogonalEdgeStyle;rounded=0;orthogonalLoop=1;jettySize=auto;html=1;entryX=0.5;entryY=0;entryDx=0;entryDy=0;" edge="1" parent="WIyWlLk6GJQsqaUBKTNV-1" source="2Z-z2ruaJ7jG-u0PLfdU-25" target="2Z-z2ruaJ7jG-u0PLfdU-24">
          <mxGeometry relative="1" as="geometry" />
        </mxCell>
        <mxCell id="2Z-z2ruaJ7jG-u0PLfdU-31" style="edgeStyle=orthogonalEdgeStyle;rounded=0;orthogonalLoop=1;jettySize=auto;html=1;entryX=0.5;entryY=0;entryDx=0;entryDy=0;" edge="1" parent="WIyWlLk6GJQsqaUBKTNV-1" source="2Z-z2ruaJ7jG-u0PLfdU-25" target="2Z-z2ruaJ7jG-u0PLfdU-23">
          <mxGeometry relative="1" as="geometry" />
        </mxCell>
        <mxCell id="2Z-z2ruaJ7jG-u0PLfdU-32" style="edgeStyle=orthogonalEdgeStyle;rounded=0;orthogonalLoop=1;jettySize=auto;html=1;" edge="1" parent="WIyWlLk6GJQsqaUBKTNV-1" source="2Z-z2ruaJ7jG-u0PLfdU-25" target="2Z-z2ruaJ7jG-u0PLfdU-26">
          <mxGeometry relative="1" as="geometry" />
        </mxCell>
        <mxCell id="2Z-z2ruaJ7jG-u0PLfdU-33" style="edgeStyle=orthogonalEdgeStyle;rounded=0;orthogonalLoop=1;jettySize=auto;html=1;entryX=0.5;entryY=0;entryDx=0;entryDy=0;" edge="1" parent="WIyWlLk6GJQsqaUBKTNV-1" source="2Z-z2ruaJ7jG-u0PLfdU-25" target="2Z-z2ruaJ7jG-u0PLfdU-27">
          <mxGeometry relative="1" as="geometry" />
        </mxCell>
        <mxCell id="2Z-z2ruaJ7jG-u0PLfdU-25" value="Details page of selected restaurant" style="shape=process;whiteSpace=wrap;html=1;backgroundOutline=1;" vertex="1" parent="WIyWlLk6GJQsqaUBKTNV-1">
          <mxGeometry x="300" y="630" width="120" height="50" as="geometry" />
        </mxCell>
        <mxCell id="2Z-z2ruaJ7jG-u0PLfdU-26" value="Categories" style="rounded=1;whiteSpace=wrap;html=1;" vertex="1" parent="WIyWlLk6GJQsqaUBKTNV-1">
          <mxGeometry x="414" y="720" width="120" height="60" as="geometry" />
        </mxCell>
        <mxCell id="2Z-z2ruaJ7jG-u0PLfdU-27" value="search for dishes, veg only checkbox, fav. dishes" style="rounded=1;whiteSpace=wrap;html=1;" vertex="1" parent="WIyWlLk6GJQsqaUBKTNV-1">
          <mxGeometry x="570" y="720" width="120" height="60" as="geometry" />
        </mxCell>
        <mxCell id="2Z-z2ruaJ7jG-u0PLfdU-42" style="edgeStyle=orthogonalEdgeStyle;rounded=0;orthogonalLoop=1;jettySize=auto;html=1;entryX=0.5;entryY=0;entryDx=0;entryDy=0;" edge="1" parent="WIyWlLk6GJQsqaUBKTNV-1" source="2Z-z2ruaJ7jG-u0PLfdU-34" target="2Z-z2ruaJ7jG-u0PLfdU-35">
          <mxGeometry relative="1" as="geometry" />
        </mxCell>
        <mxCell id="2Z-z2ruaJ7jG-u0PLfdU-34" value="User Story 4" style="rounded=1;whiteSpace=wrap;html=1;" vertex="1" parent="WIyWlLk6GJQsqaUBKTNV-1">
          <mxGeometry x="310" y="840" width="120" height="50" as="geometry" />
        </mxCell>
        <mxCell id="2Z-z2ruaJ7jG-u0PLfdU-39" style="edgeStyle=orthogonalEdgeStyle;rounded=0;orthogonalLoop=1;jettySize=auto;html=1;entryX=0.5;entryY=0;entryDx=0;entryDy=0;" edge="1" parent="WIyWlLk6GJQsqaUBKTNV-1" source="2Z-z2ruaJ7jG-u0PLfdU-35" target="2Z-z2ruaJ7jG-u0PLfdU-38">
          <mxGeometry relative="1" as="geometry" />
        </mxCell>
        <mxCell id="2Z-z2ruaJ7jG-u0PLfdU-40" style="edgeStyle=orthogonalEdgeStyle;rounded=0;orthogonalLoop=1;jettySize=auto;html=1;entryX=0.5;entryY=0;entryDx=0;entryDy=0;" edge="1" parent="WIyWlLk6GJQsqaUBKTNV-1" source="2Z-z2ruaJ7jG-u0PLfdU-35" target="2Z-z2ruaJ7jG-u0PLfdU-37">
          <mxGeometry relative="1" as="geometry" />
        </mxCell>
        <mxCell id="2Z-z2ruaJ7jG-u0PLfdU-41" style="edgeStyle=orthogonalEdgeStyle;rounded=0;orthogonalLoop=1;jettySize=auto;html=1;entryX=0.5;entryY=0;entryDx=0;entryDy=0;" edge="1" parent="WIyWlLk6GJQsqaUBKTNV-1" source="2Z-z2ruaJ7jG-u0PLfdU-35" target="2Z-z2ruaJ7jG-u0PLfdU-36">
          <mxGeometry relative="1" as="geometry" />
        </mxCell>
        <mxCell id="2Z-z2ruaJ7jG-u0PLfdU-35" value="During checkout pop up signin/signup" style="shape=process;whiteSpace=wrap;html=1;backgroundOutline=1;" vertex="1" parent="WIyWlLk6GJQsqaUBKTNV-1">
          <mxGeometry x="310" y="940" width="120" height="60" as="geometry" />
        </mxCell>
        <mxCell id="2Z-z2ruaJ7jG-u0PLfdU-36" value="Remember me" style="rounded=1;whiteSpace=wrap;html=1;" vertex="1" parent="WIyWlLk6GJQsqaUBKTNV-1">
          <mxGeometry x="520" y="1070" width="120" height="60" as="geometry" />
        </mxCell>
        <mxCell id="2Z-z2ruaJ7jG-u0PLfdU-37" value="resetting the pasword&lt;br&gt;(forget password link)" style="rounded=1;whiteSpace=wrap;html=1;" vertex="1" parent="WIyWlLk6GJQsqaUBKTNV-1">
          <mxGeometry x="310" y="1070" width="120" height="60" as="geometry" />
        </mxCell>
        <mxCell id="2Z-z2ruaJ7jG-u0PLfdU-38" value="signin/signup&lt;br&gt;(using a modal)" style="rounded=1;whiteSpace=wrap;html=1;" vertex="1" parent="WIyWlLk6GJQsqaUBKTNV-1">
          <mxGeometry x="90" y="1070" width="120" height="60" as="geometry" />
        </mxCell>
        <mxCell id="2Z-z2ruaJ7jG-u0PLfdU-43" value="checkin" style="rounded=1;whiteSpace=wrap;html=1;" vertex="1" parent="WIyWlLk6GJQsqaUBKTNV-1">
          <mxGeometry x="530" y="1460" width="120" height="60" as="geometry" />
        </mxCell>
        <mxCell id="2Z-z2ruaJ7jG-u0PLfdU-48" style="edgeStyle=orthogonalEdgeStyle;rounded=0;orthogonalLoop=1;jettySize=auto;html=1;entryX=0.45;entryY=-0.033;entryDx=0;entryDy=0;entryPerimeter=0;" edge="1" parent="WIyWlLk6GJQsqaUBKTNV-1" source="2Z-z2ruaJ7jG-u0PLfdU-44" target="2Z-z2ruaJ7jG-u0PLfdU-46">
          <mxGeometry relative="1" as="geometry" />
        </mxCell>
        <mxCell id="2Z-z2ruaJ7jG-u0PLfdU-49" style="edgeStyle=orthogonalEdgeStyle;rounded=0;orthogonalLoop=1;jettySize=auto;html=1;entryX=0.5;entryY=0;entryDx=0;entryDy=0;" edge="1" parent="WIyWlLk6GJQsqaUBKTNV-1" source="2Z-z2ruaJ7jG-u0PLfdU-44" target="2Z-z2ruaJ7jG-u0PLfdU-45">
          <mxGeometry relative="1" as="geometry" />
        </mxCell>
        <mxCell id="2Z-z2ruaJ7jG-u0PLfdU-50" style="edgeStyle=orthogonalEdgeStyle;rounded=0;orthogonalLoop=1;jettySize=auto;html=1;" edge="1" parent="WIyWlLk6GJQsqaUBKTNV-1" source="2Z-z2ruaJ7jG-u0PLfdU-44" target="2Z-z2ruaJ7jG-u0PLfdU-43">
          <mxGeometry relative="1" as="geometry" />
        </mxCell>
        <mxCell id="2Z-z2ruaJ7jG-u0PLfdU-44" value="add payment methods" style="shape=process;whiteSpace=wrap;html=1;backgroundOutline=1;" vertex="1" parent="WIyWlLk6GJQsqaUBKTNV-1">
          <mxGeometry x="310" y="1320" width="120" height="60" as="geometry" />
        </mxCell>
        <mxCell id="2Z-z2ruaJ7jG-u0PLfdU-45" value="Pay on delievery" style="rounded=1;whiteSpace=wrap;html=1;" vertex="1" parent="WIyWlLk6GJQsqaUBKTNV-1">
          <mxGeometry x="310" y="1460" width="120" height="60" as="geometry" />
        </mxCell>
        <mxCell id="2Z-z2ruaJ7jG-u0PLfdU-46" value="Credit/Debit cards" style="rounded=1;whiteSpace=wrap;html=1;" vertex="1" parent="WIyWlLk6GJQsqaUBKTNV-1">
          <mxGeometry x="80" y="1460" width="120" height="60" as="geometry" />
        </mxCell>
        <mxCell id="2Z-z2ruaJ7jG-u0PLfdU-51" style="edgeStyle=orthogonalEdgeStyle;rounded=0;orthogonalLoop=1;jettySize=auto;html=1;" edge="1" parent="WIyWlLk6GJQsqaUBKTNV-1" source="2Z-z2ruaJ7jG-u0PLfdU-47" target="2Z-z2ruaJ7jG-u0PLfdU-44">
          <mxGeometry relative="1" as="geometry" />
        </mxCell>
        <mxCell id="2Z-z2ruaJ7jG-u0PLfdU-47" value="User Story 5" style="rounded=1;whiteSpace=wrap;html=1;" vertex="1" parent="WIyWlLk6GJQsqaUBKTNV-1">
          <mxGeometry x="310" y="1210" width="120" height="60" as="geometry" />
        </mxCell>
        <mxCell id="2Z-z2ruaJ7jG-u0PLfdU-58" style="edgeStyle=orthogonalEdgeStyle;rounded=0;orthogonalLoop=1;jettySize=auto;html=1;entryX=0.5;entryY=0;entryDx=0;entryDy=0;" edge="1" parent="WIyWlLk6GJQsqaUBKTNV-1" source="2Z-z2ruaJ7jG-u0PLfdU-52" target="2Z-z2ruaJ7jG-u0PLfdU-53">
          <mxGeometry relative="1" as="geometry" />
        </mxCell>
        <mxCell id="2Z-z2ruaJ7jG-u0PLfdU-52" value="user story 6" style="rounded=1;whiteSpace=wrap;html=1;" vertex="1" parent="WIyWlLk6GJQsqaUBKTNV-1">
          <mxGeometry x="320" y="1570" width="120" height="40" as="geometry" />
        </mxCell>
        <mxCell id="2Z-z2ruaJ7jG-u0PLfdU-56" style="edgeStyle=orthogonalEdgeStyle;rounded=0;orthogonalLoop=1;jettySize=auto;html=1;entryX=0.5;entryY=0;entryDx=0;entryDy=0;" edge="1" parent="WIyWlLk6GJQsqaUBKTNV-1" source="2Z-z2ruaJ7jG-u0PLfdU-53" target="2Z-z2ruaJ7jG-u0PLfdU-54">
          <mxGeometry relative="1" as="geometry" />
        </mxCell>
        <mxCell id="2Z-z2ruaJ7jG-u0PLfdU-57" style="edgeStyle=orthogonalEdgeStyle;rounded=0;orthogonalLoop=1;jettySize=auto;html=1;entryX=0.75;entryY=0;entryDx=0;entryDy=0;entryPerimeter=0;" edge="1" parent="WIyWlLk6GJQsqaUBKTNV-1" source="2Z-z2ruaJ7jG-u0PLfdU-53" target="2Z-z2ruaJ7jG-u0PLfdU-55">
          <mxGeometry relative="1" as="geometry">
            <mxPoint x="530" y="1780" as="targetPoint" />
          </mxGeometry>
        </mxCell>
        <mxCell id="2Z-z2ruaJ7jG-u0PLfdU-53" value="order details" style="shape=process;whiteSpace=wrap;html=1;backgroundOutline=1;" vertex="1" parent="WIyWlLk6GJQsqaUBKTNV-1">
          <mxGeometry x="320" y="1660" width="120" height="60" as="geometry" />
        </mxCell>
        <mxCell id="2Z-z2ruaJ7jG-u0PLfdU-54" value="checkout button to place the order" style="rounded=1;whiteSpace=wrap;html=1;" vertex="1" parent="WIyWlLk6GJQsqaUBKTNV-1">
          <mxGeometry x="130" y="1800" width="120" height="60" as="geometry" />
        </mxCell>
        <mxCell id="2Z-z2ruaJ7jG-u0PLfdU-55" value="&lt;span&gt;details of order&lt;/span&gt;" style="rounded=1;whiteSpace=wrap;html=1;" vertex="1" parent="WIyWlLk6GJQsqaUBKTNV-1">
          <mxGeometry x="440" y="1790" width="120" height="60" as="geometry" />
        </mxCell>
      </root>
    </mxGraphModel>
  </diagram>
</mxfile>
